# xmcd
#
# Track frame offsets: 
#        150
#        21401
#        37646
#        58190
#        73963
#        90541
#        112819
#        133610
#        159169
#        182200
#        204556
#        221196
#        240589
#        263296
#        285964
#        303364
#        321255
#
# Disc length: 4623 seconds
#
# Revision: 0
# Processed by: cddbd v1.5.1PL0 Copyright (c) Steve Scherf et al.
# Submitted via: ExactAudioCopy v0.95a5
#
DISCID=e8120d11
DTITLE=Bonnie Raitt - Bonnie Raitt live
DYEAR=1995
DGENRE=Blues
TTITLE0=Thing called Love
TTITLE1=Three time Loser
TTITLE2=Love Letter
TTITLE3=Never make your Move too soon
TTITLE4=Something to talk about
TTITLE5=Matters of the Heart
TTITLE6=Shake a little
TTITLE7=Have a Heart
TTITLE8=Love me like a Man
TTITLE9=The Kokomo Medley
TTITLE10=Louise
TTITLE11=Dimming of the Day
TTITLE12=Longing in their Hearts
TTITLE13=Come to me
TTITLE14=Love sneakin`up on you
TTITLE15=Burning down the House
TTITLE16=I can`t make you love me
EXTD=
EXTT0=
EXTT1=
EXTT2=
EXTT3=
EXTT4=
EXTT5=
EXTT6=
EXTT7=
EXTT8=
EXTT9=
EXTT10=
EXTT11=
EXTT12=
EXTT13=
EXTT14=
EXTT15=
EXTT16=
PLAYORDER=
